<?xml version="1.0" encoding="UTF-8" standalone="no"?>
<svg width="433px" height="358px" viewBox="0 0 433 358" version="1.1" xmlns="http://www.w3.org/2000/svg" xmlns:xlink="http://www.w3.org/1999/xlink" xmlns:sketch="http://www.bohemiancoding.com/sketch/ns">
    <!-- Generator: Sketch 3.4.4 (17249) - http://www.bohemiancoding.com/sketch -->
    <title>Bird</title>
    <desc>Created with Sketch.</desc>
    <defs></defs>
    <g id="Page-1" stroke="none" stroke-width="1" fill="none" fill-rule="evenodd" sketch:type="MSPage">
        <g id="Bird" sketch:type="MSLayerGroup">
            <g id="birdy_by_rev_mono" sketch:type="MSShapeGroup">
                <g id="Page-1">
                    <g id="birdy_by_rev_mono">
                        <path d="M336.1436,153.2788 C336.2176,152.6598 336.3236,152.0528 336.4446,151.4518 C324.8316,148.0258 317.4576,142.8268 317.2796,136.8128 C317.0296,128.3378 331.1386,120.6378 351.5056,116.8698 C337.9526,68.6108 299.9976,29.5298 250.2316,15.6758 C244.6196,17.0198 238.5816,17.9268 231.8076,18.8658 L213.6596,10.6408 C213.7826,10.5448 213.9226,10.4458 214.0576,10.3478 C159.2076,9.0988 109.5166,38.7438 83.6416,84.6728 C102.5446,93.1598 114.4316,103.9868 112.1796,112.1628 C110.5816,117.9648 102.1856,121.2668 90.0916,121.8438 C90.0676,122.4568 90.0256,123.0718 89.9516,123.6908 C88.4866,135.8788 77.6046,144.6318 65.4626,143.5578 C64.6546,152.7538 64.7206,161.8388 65.5926,170.7238 C84.2786,128.9048 146.4546,103.2278 216.2696,111.6188 C286.0826,120.0098 340.4046,159.6868 348.6506,204.7428 C351.6046,196.3178 353.8206,187.5068 355.2126,178.3828 C343.1706,176.5418 334.6786,165.4628 336.1436,153.2788" id="Fill-1" fill="#009DE0"></path>
                        <path d="M70.492669,98.481 C82.3606263,99.9 90.9877569,110.163 90.5295191,121.844 C102.68287,121.267 111.121078,117.964 112.725915,112.163 C114.988967,103.987 103.044637,93.16 84.0488708,84.673 C77.5471194,81.768 70.2233537,79.136 62.3559331,76.979 C31.500249,68.523 4.02406877,70.564 0.987238378,81.538 C-1.86368414,91.84 17.8345122,106.352 45.782999,115.086 C48.6711031,104.373 59.1030476,97.119 70.492669,98.481" id="Fill-3" fill="#009DE0"></path>
                        <path d="M90.9309848,123.325264 C91.0076116,122.694938 91.0495008,122.069704 91.0740214,121.445489 C91.5399118,109.549753 82.7676851,99.0999969 70.7025527,97.6550346 C59.1217013,96.2670968 48.5165634,103.654836 45.5802275,114.563843 C45.2961978,115.61778 45.0806213,116.702265 44.9457583,117.817299 C43.4203757,130.473703 52.4766322,141.966194 65.1762338,143.487528 C65.4214393,143.517059 65.6666448,143.535388 65.9118503,143.556773 C78.3161835,144.649404 89.4342096,135.736258 90.9309848,123.325264" id="Fill-5" fill="#009DE0"></path>
                        <path d="M374.173927,114.5077 C366.031465,114.7477 358.153945,115.479856 351.160229,116.769856 C330.744431,120.537856 316.752679,128.3377 317.003278,136.8127 C317.182707,142.8267 324.574374,148.0257 336.214196,151.4517 C338.544766,139.9957 349.343578,132.0597 361.181873,133.4787 C372.544031,134.8417 380.931078,144.3477 381.184684,155.4377 C410.343379,153.5417 432.879245,144.0877 432.564492,133.4067 C432.225682,122.0287 406.085201,113.5667 374.173927,114.5077 Z" id="Fill-7" fill="#009DE0"></path>
                        <path d="M335.475358,150.663095 C335.351745,151.281525 335.243455,151.90613 335.167857,152.543083 C333.671214,165.079423 342.346635,176.480774 354.648734,178.374139 C354.898005,178.412212 355.145232,178.452343 355.395523,178.484242 C368.094003,180.020544 379.623773,170.898434 381.150042,158.109988 C381.284893,156.982201 381.331887,155.866762 381.307368,154.7647 C381.048904,143.353059 372.501182,133.57033 360.921354,132.168828 C348.855245,130.708673 337.850577,138.874839 335.475358,150.663095 Z" id="Fill-9" fill="#009DE0"></path>
                        <path d="M250.2316,15.6767 C260.7456,13.1587 269.7686,9.1037 279.3506,0.4067 C267.4736,7.0367 247.5366,13.7057 233.6366,12.0347 C240.0706,8.7797 246.5046,5.5247 252.0656,1.1567 C241.5406,4.9277 231.1346,7.7057 220.8476,9.4907 C224.0656,7.8637 226.4096,5.1227 229.6256,3.4957 C224.6166,4.8337 217.5536,7.7897 214.0576,10.3477 C213.9226,10.4457 212.060399,11.174996 211.937399,11.270996 L231.8076,18.8657 C235.767812,20.5305289 244.6196,17.0197 250.2316,15.6767 Z" id="Fill-11" fill="#009DE0"></path>
                        <path d="M224.1309,331.1514 L225.5909,357.7044 L232.9129,357.2994 L231.4529,330.7474 L227.4439,324.6084 L224.1309,331.1514 L224.1309,331.1514 Z" id="Fill-15" fill="#F29400"></path>
                        <path id="Fill-17" fill="#F29400" d="M227.1465,319.2061 L227.6725,318.8641 L226.5855,318.9231 L227.1465,319.2061 L227.1465,319.2061 Z"></path>
                        <path d="M231.0215,316.6768 L230.8575,316.7818 L230.9625,318.6828 L227.6725,318.8648 L227.1465,319.2058 L229.5595,320.4288 L227.4435,324.6088 L231.4535,330.7468 L247.1185,354.7358 L253.2585,350.7238 L231.0215,316.6768 L231.0215,316.6768 Z" id="Fill-19" fill="#F29400"></path>
                        <path d="M229.5596,320.4287 L227.1466,319.2057 L226.5856,318.9227 L223.2976,319.1047 L223.1936,317.2057 L223.0166,317.1157 L204.6486,353.3977 L211.1906,356.7097 L224.1306,331.1517 L227.4436,324.6087 L229.5596,320.4287 L229.5596,320.4287 Z" id="Fill-21" fill="#F29400"></path>
                        <path d="M226.5859,318.9229 L227.6729,318.8639 L230.9629,318.6829 L230.8569,316.7819 L228.8289,279.8899 L221.1659,280.3099 L223.1929,317.2059 L223.2979,319.1049 L226.5859,318.9229 L226.5859,318.9229 Z" id="Fill-23" fill="#F29400"></path>
                        <path d="M149.5942,320.9111 L141.8852,346.3601 L148.9042,348.4871 L156.6132,323.0361 L154.9452,315.8951 L149.5942,320.9111 L149.5942,320.9111 Z" id="Fill-25" fill="#F29400"></path>
                        <path id="Fill-27" fill="#F29400" d="M156.5132,310.7197 L157.1252,310.5747 L156.0832,310.2607 L156.5132,310.7197 L156.5132,310.7197 Z"></path>
                        <path d="M161.0215,309.665 L160.8295,309.71 L160.2785,311.53 L157.1255,310.575 L156.5135,310.72 L158.3635,312.692 L154.9455,315.895 L156.6135,323.036 L163.1295,350.935 L170.2715,349.267 L161.0215,309.665 L161.0215,309.665 Z" id="Fill-29" fill="#F29400"></path>
                        <path d="M158.3633,312.6924 L156.5133,310.7194 L156.0833,310.2604 L152.9323,309.3054 L153.4833,307.4874 L153.3473,307.3404 L123.6773,335.1534 L128.6923,340.5034 L149.5943,320.9114 L154.9453,315.8954 L158.3633,312.6924 L158.3633,312.6924 Z" id="Fill-31" fill="#F29400"></path>
                        <path d="M157.1255,310.5747 L160.2785,311.5307 L160.8295,309.7097 L171.5415,274.3487 L164.1965,272.1237 L153.4835,307.4877 L152.9325,309.3057 L156.0835,310.2607 L157.1255,310.5747 Z" id="Fill-33" fill="#F29400"></path>
                        <path d="M193.479,301.2549 C262.739,309.5789 326.483,267.9579 348.65,204.7429 C340.404,159.6869 286.083,120.0099 216.27,111.6189 C146.455,103.2279 84.279,128.9049 65.593,170.7239 C72.15,237.3919 124.217,292.9309 193.479,301.2549" id="Fill-35" fill="#FFE495"></path>
                        <path d="M251.5762,115.3584 C250.5872,123.5834 234.0042,128.3554 214.5382,126.0154 C195.0732,123.6764 180.0942,115.1104 181.0822,106.8864 C182.0712,98.6614 198.6532,93.8904 218.1182,96.2294 C237.5842,98.5684 252.5632,107.1334 251.5762,115.3584" id="Fill-37" fill="#F29400"></path>
                        <path d="M251.5762,115.3584 C250.5872,123.5834 234.0042,128.3554 214.5382,126.0154 C195.0732,123.6764 180.0942,115.1104 181.0822,106.8864 C182.0712,98.6614 198.6532,93.8904 218.1182,96.2294 C237.5842,98.5684 252.5632,107.1334 251.5762,115.3584 L251.5762,115.3584 L251.5762,115.3584 Z" id="Stroke-39" stroke="#E85D0F"></path>
                        <path d="M181.0825,106.8862 L215.6135,117.0802 L251.5765,115.3582" id="Stroke-41" stroke="#E85D0F"></path>
                        <path d="M157.7285,81.9214 C156.9375,88.5014 150.9625,93.1944 144.3825,92.4034 C137.8015,91.6134 133.1085,85.6374 133.8995,79.0574 C134.6905,72.4774 140.6655,67.7844 147.2465,68.5754 C153.8255,69.3654 158.5195,75.3414 157.7285,81.9214" id="Fill-43" fill="#7B4C25"></path>
                        <path d="M304.0879,98.8398 C303.3409,105.0538 297.6969,109.4868 291.4839,108.7398 C285.2699,107.9928 280.8369,102.3498 281.5829,96.1358 C282.3299,89.9218 287.9739,85.4878 294.1889,86.2358 C300.4019,86.9818 304.8349,92.6258 304.0879,98.8398" id="Fill-45" fill="#7B4C25"></path>
                    </g>
                </g>
            </g>
            <path d="M154.335083,304.950378 C154.335083,304.950378 158.525308,306.819445 160.640015,308.460632 C160.795027,308.580934 161.124684,309.994568 161.179606,310.234017 C161.184708,310.256261 161,323 161,323 C161,323 157.61733,323.186457 156.624878,323 C157.570317,323 155.860593,323.164757 155.205811,322.566284 C154.551028,321.967811 147.926999,320.543913 147.926999,320.543913 L154.335083,304.950378 Z" id="Rectangle-1" fill="#F29400" sketch:type="MSShapeGroup"></path>
            <path d="M223.380371,315.852173 C223.380371,315.852173 227.689126,313.323718 229.803833,314.964905 C229.958845,315.085206 231.678477,317.564873 231.733398,317.804321 C231.7385,317.826565 231.445251,330.729737 231.445251,330.729737 C231.445251,330.729737 229.690331,330.236078 228.69788,330.049622 C229.643319,330.049622 224.80615,331.718895 224.151367,331.120422 C223.496585,330.521949 220,327.593534 220,327.593534 L223.380371,315.852173 Z" id="Rectangle-1-Copy" fill="#F29400" sketch:type="MSShapeGroup"></path>
        </g>
    </g>
</svg>