<?xml version="1.0" encoding="UTF-8" standalone="no"?>
<svg width="34px" height="49px" viewBox="0 0 34 49" version="1.1" xmlns="http://www.w3.org/2000/svg" xmlns:xlink="http://www.w3.org/1999/xlink" xmlns:sketch="http://www.bohemiancoding.com/sketch/ns">
    <!-- Generator: Sketch 3.4.4 (17249) - http://www.bohemiancoding.com/sketch -->
    <title>bottle</title>
    <desc>Created with Sketch.</desc>
    <defs></defs>
    <g id="Page-1" stroke="none" stroke-width="1" fill="none" fill-rule="evenodd" sketch:type="MSPage">
        <g id="Desktop-HD" sketch:type="MSArtboardGroup" transform="translate(-1152.000000, -476.000000)" fill="#A2A2A2">
            <g id="insulin-bottle" sketch:type="MSLayerGroup" transform="translate(1115.000000, 450.000000)">
                <g id="Group" transform="translate(37.000000, 25.980843)" sketch:type="MSShapeGroup">
                    <g id="bottle" transform="translate(0.071429, 0.000000)">
                        <path d="M25.4351132,48.7550803 L8.48023154,48.7550803 C3.80555671,48.7550803 0.00137755102,45.2092383 0.00137755102,40.8500573 L0.00137755102,17.1077601 C0.00137755102,12.7494574 3.80555671,9.20273711 8.48023154,9.20273711 L8.94562642,9.20273711 L8.94562642,6.61428126 L4.58372709,6.61428126 L4.58372709,0.649502279 L29.3316177,0.649502279 L29.3316177,6.6151596 L24.9687763,6.6151596 L24.9687763,9.20361545 L25.4341711,9.20361545 C30.108846,9.20361545 33.9130251,12.7494574 33.9139672,17.1086384 L33.9139672,40.8500573 C33.9139672,45.2092383 30.1107302,48.7550803 25.4351132,48.7550803 L25.4351132,48.7550803 Z M8.48023154,10.9594089 C4.84374527,10.9594089 1.88556733,13.7173836 1.88556733,17.1077601 L1.88556733,40.8500573 C1.88556733,44.2395555 4.84374527,46.9984085 8.48023154,46.9984085 L25.4351132,46.9984085 C29.0706574,46.9984085 32.0297775,44.2395555 32.0297775,40.8500573 L32.0297775,17.1086384 C32.0288354,13.7182619 29.0697153,10.9602872 25.4341711,10.9602872 L23.0845865,10.9602872 L23.0845865,4.85848783 L27.4474279,4.85848783 L27.4474279,2.40617405 L6.46791686,2.40617405 L6.46791686,4.8576095 L10.8298162,4.8576095 L10.8298162,10.9594089 L8.48023154,10.9594089 L8.48023154,10.9594089 Z" id="Shape"></path>
                        <path d="M21.491504,45.0379628 L10.6611812,45.0379628 C9.17549757,45.0379628 7.96773192,44.5803498 7.07274178,43.6774205 C5.27051426,41.8592653 5.49944332,38.887855 5.50980636,38.7613746 L5.50698008,17.7954971 L7.39116985,17.7954971 L7.39116985,38.8307631 C7.38645938,38.9212317 7.2168823,41.2400385 8.46044755,42.4890321 C8.99084697,43.0213036 9.71060746,43.2804127 10.6602391,43.2804127 L21.4905619,43.2804127 L21.4905619,45.0379628 L21.491504,45.0379628 Z" id="Shape"></path>
                    </g>
                </g>
            </g>
        </g>
    </g>
</svg>